{
    "asset" : {
        "generator" : "Khronos glTF Blender I/O v3.2.40",
        "version" : "2.0"
    },
    "scene" : 0,
    "scenes" : [
        {
            "name" : "Scene",
            "nodes" : [
                0
            ]
        }
    ],
    "nodes" : [
        {
            "mesh" : 0,
            "name" : "node-01C0F936.001",
            "rotation" : [
                -0.29271602630615234,
                -0.07739688456058502,
                -0.2927645146846771,
                0.9069818258285522
            ],
            "translation" : [
                -0.4362870156764984,
                -0.5515714287757874,
                0.38471347093582153
            ]
        }
    ],
    "materials" : [
        {
            "doubleSided" : true,
            "name" : "BiggoronSword",
            "normalTexture" : {
                "index" : 0
            },
            "pbrMetallicRoughness" : {
                "baseColorTexture" : {
                    "index" : 1
                },
                "metallicFactor" : 1.350000023841858,
                "metallicRoughnessTexture" : {
                    "index" : 2
                }
            }
        }
    ],
    "meshes" : [
        {
            "name" : "geom-01C0F936.001",
            "primitives" : [
                {
                    "attributes" : {
                        "POSITION" : 0,
                        "NORMAL" : 1,
                        "TEXCOORD_0" : 2,
                        "TEXCOORD_1" : 3,
                        "TEXCOORD_2" : 4,
                        "TEXCOORD_3" : 5,
                        "COLOR_0" : 6,
                        "COLOR_1" : 7,
                        "COLOR_2" : 8
                    },
                    "indices" : 9,
                    "material" : 0
                }
            ]
        }
    ],
    "textures" : [
        {
            "sampler" : 0,
            "source" : 0
        },
        {
            "sampler" : 0,
            "source" : 1
        },
        {
            "sampler" : 0,
            "source" : 2
        }
    ],
    "images" : [
        {
            "bufferView" : 10,
            "mimeType" : "image/png",
            "name" : "BiggoronSword_BiggoronSword_Normal"
        },
        {
            "bufferView" : 11,
            "mimeType" : "image/png",
            "name" : "BiggoronSword_BiggoronSword_BaseMap"
        },
        {
            "bufferView" : 12,
            "mimeType" : "image/png",
            "name" : "BiggoronSword_BiggoronSword_MaskMap"
        }
    ],
    "accessors" : [
        {
            "bufferView" : 0,
            "componentType" : 5126,
            "count" : 1156,
            "max" : [
                0.8124688863754272,
                5.785343170166016,
                0.21752677857875824
            ],
            "min" : [
                -0.8124688863754272,
                -0.3028981387615204,
                -0.21752677857875824
            ],
            "type" : "VEC3"
        },
        {
            "bufferView" : 1,
            "componentType" : 5126,
            "count" : 1156,
            "type" : "VEC3"
        },
        {
            "bufferView" : 2,
            "componentType" : 5126,
            "count" : 1156,
            "type" : "VEC2"
        },
        {
            "bufferView" : 3,
            "componentType" : 5126,
            "count" : 1156,
            "type" : "VEC2"
        },
        {
            "bufferView" : 4,
            "componentType" : 5126,
            "count" : 1156,
            "type" : "VEC2"
        },
        {
            "bufferView" : 5,
            "componentType" : 5126,
            "count" : 1156,
            "type" : "VEC2"
        },
        {
            "bufferView" : 6,
            "componentType" : 5123,
            "count" : 1156,
            "normalized" : true,
            "type" : "VEC4"
        },
        {
            "bufferView" : 7,
            "componentType" : 5123,
            "count" : 1156,
            "normalized" : true,
            "type" : "VEC4"
        },
        {
            "bufferView" : 8,
            "componentType" : 5123,
            "count" : 1156,
            "normalized" : true,
            "type" : "VEC4"
        },
        {
            "bufferView" : 9,
            "componentType" : 5123,
            "count" : 3378,
            "type" : "SCALAR"
        }
    ],
    "bufferViews" : [
        {
            "buffer" : 0,
            "byteLength" : 13872,
            "byteOffset" : 0
        },
        {
            "buffer" : 0,
            "byteLength" : 13872,
            "byteOffset" : 13872
        },
        {
            "buffer" : 0,
            "byteLength" : 9248,
            "byteOffset" : 27744
        },
        {
            "buffer" : 0,
            "byteLength" : 9248,
            "byteOffset" : 36992
        },
        {
            "buffer" : 0,
            "byteLength" : 9248,
            "byteOffset" : 46240
        },
        {
            "buffer" : 0,
            "byteLength" : 9248,
            "byteOffset" : 55488
        },
        {
            "buffer" : 0,
            "byteLength" : 9248,
            "byteOffset" : 64736
        },
        {
            "buffer" : 0,
            "byteLength" : 9248,
            "byteOffset" : 73984
        },
        {
            "buffer" : 0,
            "byteLength" : 9248,
            "byteOffset" : 83232
        },
        {
            "buffer" : 0,
            "byteLength" : 6756,
            "byteOffset" : 92480
        },
        {
            "buffer" : 0,
            "byteLength" : 695576,
            "byteOffset" : 99236
        },
        {
            "buffer" : 0,
            "byteLength" : 639224,
            "byteOffset" : 794812
        },
        {
            "buffer" : 0,
            "byteLength" : 567051,
            "byteOffset" : 1434036
        }
    ],
    "samplers" : [
        {
            "magFilter" : 9729,
            "minFilter" : 9987
        }
    ],
    "buffers" : [
        {
            "byteLength" : 2001088,
            "uri" : "data:application/octet-stream;base64,"
        }
    ]
}
