{
    "asset" : {
        "copyright" : "yasu3d",
        "generator" : "Khronos glTF Blender I/O v3.4.49",
        "version" : "2.0"
    },
    "extensionsUsed" : [
        "KHR_materials_unlit"
    ],
    "scene" : 0,
    "scenes" : [
        {
            "name" : "Scene",
            "nodes" : [
                0
            ]
        }
    ],
    "nodes" : [
        {
            "mesh" : 0,
            "name" : "yasuref-b"
        }
    ],
    "materials" : [
        {
            "doubleSided" : true,
            "extensions" : {
                "KHR_materials_unlit" : {}
            },
            "name" : "yasu.body",
            "pbrMetallicRoughness" : {
                "baseColorTexture" : {
                    "index" : 0,
                    "texCoord" : 0
                },
                "metallicFactor" : 0,
                "roughnessFactor" : 0.9
            }
        },
        {
            "doubleSided" : true,
            "extensions" : {
                "KHR_materials_unlit" : {}
            },
            "name" : "yasu.dick",
            "pbrMetallicRoughness" : {
                "baseColorTexture" : {
                    "index" : 1,
                    "texCoord" : 0
                },
                "metallicFactor" : 0,
                "roughnessFactor" : 0.9
            }
        },
        {
            "doubleSided" : true,
            "name" : "yasu.glasses",
            "pbrMetallicRoughness" : {
                "baseColorFactor" : [
                    0.4575316309928894,
                    0.4575316309928894,
                    0.4575316309928894,
                    1
                ],
                "roughnessFactor" : 0
            }
        }
    ],
    "meshes" : [
        {
            "name" : "skinny.004",
            "primitives" : [
                {
                    "attributes" : {
                        "COLOR_0" : 0,
                        "POSITION" : 1,
                        "TEXCOORD_0" : 2,
                        "TEXCOORD_1" : 3,
                        "NORMAL" : 4
                    },
                    "indices" : 5,
                    "material" : 0
                },
                {
                    "attributes" : {
                        "COLOR_0" : 6,
                        "POSITION" : 7,
                        "TEXCOORD_0" : 8,
                        "TEXCOORD_1" : 9,
                        "NORMAL" : 10
                    },
                    "indices" : 11,
                    "material" : 1
                },
                {
                    "attributes" : {
                        "COLOR_0" : 12,
                        "POSITION" : 13,
                        "TEXCOORD_0" : 14,
                        "TEXCOORD_1" : 15,
                        "NORMAL" : 16
                    },
                    "indices" : 17,
                    "material" : 2
                }
            ]
        }
    ],
    "textures" : [
        {
            "sampler" : 0,
            "source" : 0
        },
        {
            "sampler" : 0,
            "source" : 1
        }
    ],
    "images" : [
        {
            "bufferView" : 6,
            "mimeType" : "image/png",
            "name" : "YasuV5_color"
        },
        {
            "bufferView" : 13,
            "mimeType" : "image/png",
            "name" : "tigerdick"
        }
    ],
    "accessors" : [
        {
            "bufferView" : 0,
            "componentType" : 5123,
            "count" : 14519,
            "normalized" : true,
            "type" : "VEC4"
        },
        {
            "bufferView" : 1,
            "componentType" : 5126,
            "count" : 14519,
            "max" : [
                0.6968565583229065,
                1.38999342918396,
                0.15506726503372192
            ],
            "min" : [
                -0.2681405544281006,
                -0.011463004164397717,
                -0.3016722500324249
            ],
            "type" : "VEC3"
        },
        {
            "bufferView" : 2,
            "componentType" : 5126,
            "count" : 14519,
            "type" : "VEC2"
        },
        {
            "bufferView" : 3,
            "componentType" : 5126,
            "count" : 14519,
            "type" : "VEC2"
        },
        {
            "bufferView" : 4,
            "componentType" : 5126,
            "count" : 14519,
            "type" : "VEC3"
        },
        {
            "bufferView" : 5,
            "componentType" : 5123,
            "count" : 60285,
            "type" : "SCALAR"
        },
        {
            "bufferView" : 7,
            "componentType" : 5123,
            "count" : 943,
            "normalized" : true,
            "type" : "VEC4"
        },
        {
            "bufferView" : 8,
            "componentType" : 5126,
            "count" : 943,
            "max" : [
                0.018936675041913986,
                0.6987261772155762,
                0.18258771300315857
            ],
            "min" : [
                -0.018907109275460243,
                0.6589586734771729,
                0.12244952470064163
            ],
            "type" : "VEC3"
        },
        {
            "bufferView" : 9,
            "componentType" : 5126,
            "count" : 943,
            "type" : "VEC2"
        },
        {
            "bufferView" : 10,
            "componentType" : 5126,
            "count" : 943,
            "type" : "VEC2"
        },
        {
            "bufferView" : 11,
            "componentType" : 5126,
            "count" : 943,
            "type" : "VEC3"
        },
        {
            "bufferView" : 12,
            "componentType" : 5123,
            "count" : 4971,
            "type" : "SCALAR"
        },
        {
            "bufferView" : 14,
            "componentType" : 5123,
            "count" : 499,
            "normalized" : true,
            "type" : "VEC4"
        },
        {
            "bufferView" : 15,
            "componentType" : 5126,
            "count" : 499,
            "max" : [
                0.07936214655637741,
                1.3139610290527344,
                0.11801675707101822
            ],
            "min" : [
                -0.07933106273412704,
                1.258512258529663,
                0.035249464213848114
            ],
            "type" : "VEC3"
        },
        {
            "bufferView" : 16,
            "componentType" : 5126,
            "count" : 499,
            "type" : "VEC2"
        },
        {
            "bufferView" : 17,
            "componentType" : 5126,
            "count" : 499,
            "type" : "VEC2"
        },
        {
            "bufferView" : 18,
            "componentType" : 5126,
            "count" : 499,
            "type" : "VEC3"
        },
        {
            "bufferView" : 19,
            "componentType" : 5123,
            "count" : 2028,
            "type" : "SCALAR"
        }
    ],
    "bufferViews" : [
        {
            "buffer" : 0,
            "byteLength" : 116152,
            "byteOffset" : 0,
            "target" : 34962
        },
        {
            "buffer" : 0,
            "byteLength" : 174228,
            "byteOffset" : 116152,
            "target" : 34962
        },
        {
            "buffer" : 0,
            "byteLength" : 116152,
            "byteOffset" : 290380,
            "target" : 34962
        },
        {
            "buffer" : 0,
            "byteLength" : 116152,
            "byteOffset" : 406532,
            "target" : 34962
        },
        {
            "buffer" : 0,
            "byteLength" : 174228,
            "byteOffset" : 522684,
            "target" : 34962
        },
        {
            "buffer" : 0,
            "byteLength" : 120570,
            "byteOffset" : 696912,
            "target" : 34963
        },
        {
            "buffer" : 0,
            "byteLength" : 1116957,
            "byteOffset" : 817484
        },
        {
            "buffer" : 0,
            "byteLength" : 7544,
            "byteOffset" : 1934444,
            "target" : 34962
        },
        {
            "buffer" : 0,
            "byteLength" : 11316,
            "byteOffset" : 1941988,
            "target" : 34962
        },
        {
            "buffer" : 0,
            "byteLength" : 7544,
            "byteOffset" : 1953304,
            "target" : 34962
        },
        {
            "buffer" : 0,
            "byteLength" : 7544,
            "byteOffset" : 1960848,
            "target" : 34962
        },
        {
            "buffer" : 0,
            "byteLength" : 11316,
            "byteOffset" : 1968392,
            "target" : 34962
        },
        {
            "buffer" : 0,
            "byteLength" : 9942,
            "byteOffset" : 1979708,
            "target" : 34963
        },
        {
            "buffer" : 0,
            "byteLength" : 880537,
            "byteOffset" : 1989652
        },
        {
            "buffer" : 0,
            "byteLength" : 3992,
            "byteOffset" : 2870192,
            "target" : 34962
        },
        {
            "buffer" : 0,
            "byteLength" : 5988,
            "byteOffset" : 2874184,
            "target" : 34962
        },
        {
            "buffer" : 0,
            "byteLength" : 3992,
            "byteOffset" : 2880172,
            "target" : 34962
        },
        {
            "buffer" : 0,
            "byteLength" : 3992,
            "byteOffset" : 2884164,
            "target" : 34962
        },
        {
            "buffer" : 0,
            "byteLength" : 5988,
            "byteOffset" : 2888156,
            "target" : 34962
        },
        {
            "buffer" : 0,
            "byteLength" : 4056,
            "byteOffset" : 2894144,
            "target" : 34963
        }
    ],
    "samplers" : [
        {
            "magFilter" : 9729,
            "minFilter" : 9987
        }
    ],
    "buffers" : [
        {
            "byteLength" : 2898200,
            "uri" : "data:application/octet-stream;base64,"
        }
    ]
}
