{
    "asset" : {
        "copyright" : "yasu3d",
        "generator" : "Khronos glTF Blender I/O v3.4.49",
        "version" : "2.0"
    },
    "extensionsUsed" : [
        "KHR_materials_unlit"
    ],
    "scene" : 0,
    "scenes" : [
        {
            "name" : "Scene",
            "nodes" : [
                0
            ]
        }
    ],
    "nodes" : [
        {
            "mesh" : 0,
            "name" : "yasuref-a"
        }
    ],
    "materials" : [
        {
            "doubleSided" : true,
            "extensions" : {
                "KHR_materials_unlit" : {}
            },
            "name" : "yasu.body",
            "pbrMetallicRoughness" : {
                "baseColorTexture" : {
                    "index" : 0,
                    "texCoord" : 0
                },
                "metallicFactor" : 0,
                "roughnessFactor" : 0.9
            }
        },
        {
            "doubleSided" : true,
            "name" : "yasu.glasses",
            "pbrMetallicRoughness" : {
                "baseColorFactor" : [
                    0.4575316309928894,
                    0.4575316309928894,
                    0.4575316309928894,
                    1
                ],
                "roughnessFactor" : 0
            }
        }
    ],
    "meshes" : [
        {
            "name" : "skinny.001",
            "primitives" : [
                {
                    "attributes" : {
                        "COLOR_0" : 0,
                        "POSITION" : 1,
                        "TEXCOORD_0" : 2,
                        "TEXCOORD_1" : 3,
                        "NORMAL" : 4
                    },
                    "indices" : 5,
                    "material" : 0
                },
                {
                    "attributes" : {
                        "COLOR_0" : 6,
                        "POSITION" : 7,
                        "TEXCOORD_0" : 8,
                        "TEXCOORD_1" : 9,
                        "NORMAL" : 10
                    },
                    "indices" : 11,
                    "material" : 1
                }
            ]
        }
    ],
    "textures" : [
        {
            "sampler" : 0,
            "source" : 0
        }
    ],
    "images" : [
        {
            "bufferView" : 6,
            "mimeType" : "image/png",
            "name" : "YasuV5_color"
        }
    ],
    "accessors" : [
        {
            "bufferView" : 0,
            "componentType" : 5123,
            "count" : 14418,
            "normalized" : true,
            "type" : "VEC4"
        },
        {
            "bufferView" : 1,
            "componentType" : 5126,
            "count" : 14418,
            "max" : [
                0.6968565583229065,
                1.38999342918396,
                0.15506726503372192
            ],
            "min" : [
                -0.2681405544281006,
                -0.011463004164397717,
                -0.3016722500324249
            ],
            "type" : "VEC3"
        },
        {
            "bufferView" : 2,
            "componentType" : 5126,
            "count" : 14418,
            "type" : "VEC2"
        },
        {
            "bufferView" : 3,
            "componentType" : 5126,
            "count" : 14418,
            "type" : "VEC2"
        },
        {
            "bufferView" : 4,
            "componentType" : 5126,
            "count" : 14418,
            "type" : "VEC3"
        },
        {
            "bufferView" : 5,
            "componentType" : 5123,
            "count" : 59493,
            "type" : "SCALAR"
        },
        {
            "bufferView" : 7,
            "componentType" : 5123,
            "count" : 499,
            "normalized" : true,
            "type" : "VEC4"
        },
        {
            "bufferView" : 8,
            "componentType" : 5126,
            "count" : 499,
            "max" : [
                0.07936214655637741,
                1.3139610290527344,
                0.11801675707101822
            ],
            "min" : [
                -0.07933106273412704,
                1.258512258529663,
                0.035249464213848114
            ],
            "type" : "VEC3"
        },
        {
            "bufferView" : 9,
            "componentType" : 5126,
            "count" : 499,
            "type" : "VEC2"
        },
        {
            "bufferView" : 10,
            "componentType" : 5126,
            "count" : 499,
            "type" : "VEC2"
        },
        {
            "bufferView" : 11,
            "componentType" : 5126,
            "count" : 499,
            "type" : "VEC3"
        },
        {
            "bufferView" : 12,
            "componentType" : 5123,
            "count" : 2028,
            "type" : "SCALAR"
        }
    ],
    "bufferViews" : [
        {
            "buffer" : 0,
            "byteLength" : 115344,
            "byteOffset" : 0,
            "target" : 34962
        },
        {
            "buffer" : 0,
            "byteLength" : 173016,
            "byteOffset" : 115344,
            "target" : 34962
        },
        {
            "buffer" : 0,
            "byteLength" : 115344,
            "byteOffset" : 288360,
            "target" : 34962
        },
        {
            "buffer" : 0,
            "byteLength" : 115344,
            "byteOffset" : 403704,
            "target" : 34962
        },
        {
            "buffer" : 0,
            "byteLength" : 173016,
            "byteOffset" : 519048,
            "target" : 34962
        },
        {
            "buffer" : 0,
            "byteLength" : 118986,
            "byteOffset" : 692064,
            "target" : 34963
        },
        {
            "buffer" : 0,
            "byteLength" : 1116957,
            "byteOffset" : 811052
        },
        {
            "buffer" : 0,
            "byteLength" : 3992,
            "byteOffset" : 1928012,
            "target" : 34962
        },
        {
            "buffer" : 0,
            "byteLength" : 5988,
            "byteOffset" : 1932004,
            "target" : 34962
        },
        {
            "buffer" : 0,
            "byteLength" : 3992,
            "byteOffset" : 1937992,
            "target" : 34962
        },
        {
            "buffer" : 0,
            "byteLength" : 3992,
            "byteOffset" : 1941984,
            "target" : 34962
        },
        {
            "buffer" : 0,
            "byteLength" : 5988,
            "byteOffset" : 1945976,
            "target" : 34962
        },
        {
            "buffer" : 0,
            "byteLength" : 4056,
            "byteOffset" : 1951964,
            "target" : 34963
        }
    ],
    "samplers" : [
        {
            "magFilter" : 9729,
            "minFilter" : 9987
        }
    ],
    "buffers" : [
        {
            "byteLength" : 1956020,
            "uri" : "data:application/octet-stream;base64,"
        }
    ]
}
