{
    "asset" : {
        "generator" : "Khronos glTF Blender I/O v3.4.50",
        "version" : "2.0"
    },
    "extensionsUsed" : [
        "KHR_materials_emissive_strength",
        "KHR_materials_specular",
        "KHR_materials_ior"
    ],
    "scene" : 0,
    "scenes" : [
        {
            "name" : "Scene",
            "nodes" : [
                0,
                1,
                2
            ]
        }
    ],
    "nodes" : [
        {
            "mesh" : 0,
            "name" : "LuciferPrime_Body"
        },
        {
            "mesh" : 1,
            "name" : "LuciferPrime_Heart"
        },
        {
            "mesh" : 2,
            "name" : "LuciferPrime_Blood"
        }
    ],
    "materials" : [
        {
            "alphaMode" : "BLEND",
            "emissiveFactor" : [
                1,
                1,
                1
            ],
            "emissiveTexture" : {
                "index" : 0
            },
            "extensions" : {
                "KHR_materials_emissive_strength" : {
                    "emissiveStrength" : 2.5
                },
                "KHR_materials_specular" : {
                    "specularColorFactor" : [
                        0,
                        0,
                        0
                    ]
                },
                "KHR_materials_ior" : {
                    "ior" : 1.4500000476837158
                }
            },
            "name" : "LuciferPrime_Body",
            "pbrMetallicRoughness" : {
                "baseColorTexture" : {
                    "index" : 1
                },
                "metallicFactor" : 0,
                "roughnessFactor" : 0.5
            }
        },
        {
            "doubleSided" : true,
            "name" : "LuciferPrime_Heart",
            "pbrMetallicRoughness" : {
                "baseColorTexture" : {
                    "index" : 2
                },
                "metallicFactor" : 0,
                "roughnessFactor" : 0.5
            }
        },
        {
            "doubleSided" : true,
            "extensions" : {
                "KHR_materials_specular" : {
                    "specularColorFactor" : [
                        0,
                        0,
                        0
                    ]
                },
                "KHR_materials_ior" : {
                    "ior" : 1.4500000476837158
                }
            },
            "name" : "LuciferPrime_Blood",
            "pbrMetallicRoughness" : {
                "baseColorTexture" : {
                    "index" : 3
                },
                "metallicFactor" : 0,
                "roughnessFactor" : 0.5
            }
        }
    ],
    "meshes" : [
        {
            "name" : "MinosPrime_Body.001",
            "primitives" : [
                {
                    "attributes" : {
                        "POSITION" : 0,
                        "TEXCOORD_0" : 1,
                        "NORMAL" : 2
                    },
                    "indices" : 3,
                    "material" : 0
                }
            ]
        },
        {
            "name" : "MinosPrime_Body.011",
            "primitives" : [
                {
                    "attributes" : {
                        "POSITION" : 4,
                        "TEXCOORD_0" : 5,
                        "NORMAL" : 6
                    },
                    "indices" : 7,
                    "material" : 1
                }
            ]
        },
        {
            "name" : "NurbsPath.004",
            "primitives" : [
                {
                    "attributes" : {
                        "POSITION" : 8,
                        "TEXCOORD_0" : 9,
                        "NORMAL" : 10
                    },
                    "indices" : 11,
                    "material" : 2
                }
            ]
        }
    ],
    "textures" : [
        {
            "sampler" : 0,
            "source" : 0
        },
        {
            "sampler" : 0,
            "source" : 1
        },
        {
            "sampler" : 0,
            "source" : 2
        },
        {
            "sampler" : 0,
            "source" : 3
        }
    ],
    "images" : [
        {
            "bufferView" : 4,
            "mimeType" : "image/png",
            "name" : "LuciferPrime_Body_Emissive"
        },
        {
            "bufferView" : 5,
            "mimeType" : "image/png",
            "name" : "LuciferPrime_Body"
        },
        {
            "bufferView" : 10,
            "mimeType" : "image/png",
            "name" : "MinosPrime_Heart 1"
        },
        {
            "bufferView" : 15,
            "mimeType" : "image/png",
            "name" : "LuciferPrime_Blood"
        }
    ],
    "accessors" : [
        {
            "bufferView" : 0,
            "componentType" : 5126,
            "count" : 774,
            "max" : [
                0.5891956090927124,
                1.3276255130767822,
                0.09750774502754211
            ],
            "min" : [
                -0.5891956090927124,
                9.43988561630249e-05,
                -0.09014634788036346
            ],
            "type" : "VEC3"
        },
        {
            "bufferView" : 1,
            "componentType" : 5126,
            "count" : 774,
            "type" : "VEC2"
        },
        {
            "bufferView" : 2,
            "componentType" : 5126,
            "count" : 774,
            "type" : "VEC3"
        },
        {
            "bufferView" : 3,
            "componentType" : 5123,
            "count" : 3264,
            "type" : "SCALAR"
        },
        {
            "bufferView" : 6,
            "componentType" : 5126,
            "count" : 72,
            "max" : [
                0.037646275013685226,
                1.039612889289856,
                0.031006747856736183
            ],
            "min" : [
                -0.025585483759641647,
                0.9474920630455017,
                -0.01818251609802246
            ],
            "type" : "VEC3"
        },
        {
            "bufferView" : 7,
            "componentType" : 5126,
            "count" : 72,
            "type" : "VEC2"
        },
        {
            "bufferView" : 8,
            "componentType" : 5126,
            "count" : 72,
            "type" : "VEC3"
        },
        {
            "bufferView" : 9,
            "componentType" : 5123,
            "count" : 300,
            "type" : "SCALAR"
        },
        {
            "bufferView" : 11,
            "componentType" : 5126,
            "count" : 3540,
            "max" : [
                1.0601556301116943,
                1.5814837217330933,
                0.024402763694524765
            ],
            "min" : [
                -1.0601556301116943,
                0.3413318395614624,
                -0.22759167850017548
            ],
            "type" : "VEC3"
        },
        {
            "bufferView" : 12,
            "componentType" : 5126,
            "count" : 3540,
            "type" : "VEC2"
        },
        {
            "bufferView" : 13,
            "componentType" : 5126,
            "count" : 3540,
            "type" : "VEC3"
        },
        {
            "bufferView" : 14,
            "componentType" : 5123,
            "count" : 7224,
            "type" : "SCALAR"
        }
    ],
    "bufferViews" : [
        {
            "buffer" : 0,
            "byteLength" : 9288,
            "byteOffset" : 0,
            "target" : 34962
        },
        {
            "buffer" : 0,
            "byteLength" : 6192,
            "byteOffset" : 9288,
            "target" : 34962
        },
        {
            "buffer" : 0,
            "byteLength" : 9288,
            "byteOffset" : 15480,
            "target" : 34962
        },
        {
            "buffer" : 0,
            "byteLength" : 6528,
            "byteOffset" : 24768,
            "target" : 34963
        },
        {
            "buffer" : 0,
            "byteLength" : 15535,
            "byteOffset" : 31296
        },
        {
            "buffer" : 0,
            "byteLength" : 28754,
            "byteOffset" : 46832
        },
        {
            "buffer" : 0,
            "byteLength" : 864,
            "byteOffset" : 75588,
            "target" : 34962
        },
        {
            "buffer" : 0,
            "byteLength" : 576,
            "byteOffset" : 76452,
            "target" : 34962
        },
        {
            "buffer" : 0,
            "byteLength" : 864,
            "byteOffset" : 77028,
            "target" : 34962
        },
        {
            "buffer" : 0,
            "byteLength" : 600,
            "byteOffset" : 77892,
            "target" : 34963
        },
        {
            "buffer" : 0,
            "byteLength" : 2239,
            "byteOffset" : 78492
        },
        {
            "buffer" : 0,
            "byteLength" : 42480,
            "byteOffset" : 80732,
            "target" : 34962
        },
        {
            "buffer" : 0,
            "byteLength" : 28320,
            "byteOffset" : 123212,
            "target" : 34962
        },
        {
            "buffer" : 0,
            "byteLength" : 42480,
            "byteOffset" : 151532,
            "target" : 34962
        },
        {
            "buffer" : 0,
            "byteLength" : 14448,
            "byteOffset" : 194012,
            "target" : 34963
        },
        {
            "buffer" : 0,
            "byteLength" : 1218,
            "byteOffset" : 208460
        }
    ],
    "samplers" : [
        {
            "magFilter" : 9728,
            "minFilter" : 9984
        }
    ],
    "buffers" : [
        {
            "byteLength" : 209680,
            "uri" : "data:application/octet-stream;base64,"
        }
    ]
}
