{
    "asset" : {
        "generator" : "Khronos glTF Blender I/O v3.4.50",
        "version" : "2.0"
    },
    "scene" : 0,
    "scenes" : [
        {
            "name" : "Scene",
            "nodes" : [
                0
            ]
        }
    ],
    "nodes" : [
        {
            "mesh" : 0,
            "name" : "akicat",
            "scale" : [
                1,
                1,
                1.1515936851501465
            ]
        }
    ],
    "materials" : [
        {
            "doubleSided" : true,
            "name" : "akicat_body",
            "pbrMetallicRoughness" : {
                "baseColorTexture" : {
                    "index" : 0
                },
                "metallicFactor" : 0,
                "metallicRoughnessTexture" : {
                    "index" : 1
                }
            }
        },
        {
            "alphaMode" : "BLEND",
            "doubleSided" : true,
            "name" : "akicat_face",
            "pbrMetallicRoughness" : {
                "baseColorTexture" : {
                    "index" : 2
                },
                "metallicFactor" : 0
            }
        }
    ],
    "meshes" : [
        {
            "name" : "Cube.004",
            "primitives" : [
                {
                    "attributes" : {
                        "POSITION" : 0,
                        "TEXCOORD_0" : 1,
                        "NORMAL" : 2
                    },
                    "indices" : 3,
                    "material" : 0
                },
                {
                    "attributes" : {
                        "POSITION" : 4,
                        "TEXCOORD_0" : 5,
                        "NORMAL" : 6
                    },
                    "indices" : 7,
                    "material" : 1
                }
            ]
        }
    ],
    "textures" : [
        {
            "sampler" : 0,
            "source" : 0
        },
        {
            "sampler" : 0,
            "source" : 1
        },
        {
            "sampler" : 0,
            "source" : 2
        }
    ],
    "images" : [
        {
            "bufferView" : 4,
            "mimeType" : "image/png",
            "name" : "aki_cat_akicat_body_AlbedoRough"
        },
        {
            "bufferView" : 5,
            "mimeType" : "image/png",
            "name" : "aki_cat_akicat_body_AlbedoRough"
        },
        {
            "bufferView" : 10,
            "mimeType" : "image/png",
            "name" : "akicat_face"
        }
    ],
    "accessors" : [
        {
            "bufferView" : 0,
            "componentType" : 5126,
            "count" : 835,
            "max" : [
                0.4832358956336975,
                1.0832750797271729,
                0.3707093596458435
            ],
            "min" : [
                -0.4832358956336975,
                -0.01748231053352356,
                -0.43726328015327454
            ],
            "type" : "VEC3"
        },
        {
            "bufferView" : 1,
            "componentType" : 5126,
            "count" : 835,
            "type" : "VEC2"
        },
        {
            "bufferView" : 2,
            "componentType" : 5126,
            "count" : 835,
            "type" : "VEC3"
        },
        {
            "bufferView" : 3,
            "componentType" : 5123,
            "count" : 3060,
            "type" : "SCALAR"
        },
        {
            "bufferView" : 6,
            "componentType" : 5126,
            "count" : 36,
            "max" : [
                0.337540864944458,
                0.7413743138313293,
                0.22297336161136627
            ],
            "min" : [
                -0.3375411033630371,
                0.32435375452041626,
                -0.0283308494836092
            ],
            "type" : "VEC3"
        },
        {
            "bufferView" : 7,
            "componentType" : 5126,
            "count" : 36,
            "type" : "VEC2"
        },
        {
            "bufferView" : 8,
            "componentType" : 5126,
            "count" : 36,
            "type" : "VEC3"
        },
        {
            "bufferView" : 9,
            "componentType" : 5123,
            "count" : 96,
            "type" : "SCALAR"
        }
    ],
    "bufferViews" : [
        {
            "buffer" : 0,
            "byteLength" : 10020,
            "byteOffset" : 0,
            "target" : 34962
        },
        {
            "buffer" : 0,
            "byteLength" : 6680,
            "byteOffset" : 10020,
            "target" : 34962
        },
        {
            "buffer" : 0,
            "byteLength" : 10020,
            "byteOffset" : 16700,
            "target" : 34962
        },
        {
            "buffer" : 0,
            "byteLength" : 6120,
            "byteOffset" : 26720,
            "target" : 34963
        },
        {
            "buffer" : 0,
            "byteLength" : 139997,
            "byteOffset" : 32840
        },
        {
            "buffer" : 0,
            "byteLength" : 75341,
            "byteOffset" : 172840
        },
        {
            "buffer" : 0,
            "byteLength" : 432,
            "byteOffset" : 248184,
            "target" : 34962
        },
        {
            "buffer" : 0,
            "byteLength" : 288,
            "byteOffset" : 248616,
            "target" : 34962
        },
        {
            "buffer" : 0,
            "byteLength" : 432,
            "byteOffset" : 248904,
            "target" : 34962
        },
        {
            "buffer" : 0,
            "byteLength" : 192,
            "byteOffset" : 249336,
            "target" : 34963
        },
        {
            "buffer" : 0,
            "byteLength" : 13949,
            "byteOffset" : 249528
        }
    ],
    "samplers" : [
        {
            "magFilter" : 9729,
            "minFilter" : 9987
        }
    ],
    "buffers" : [
        {
            "byteLength" : 263480,
            "uri" : "data:application/octet-stream;base64,"
        }
    ]
}
