{
    "asset" : {
        "generator" : "Khronos glTF Blender I/O v3.4.50",
        "version" : "2.0"
    },
    "scene" : 0,
    "scenes" : [
        {
            "name" : "Scene",
            "nodes" : [
                0
            ]
        }
    ],
    "nodes" : [
        {
            "mesh" : 0,
            "name" : "biggoronsword",
            "rotation" : [
                -0.29271605610847473,
                -0.07739689201116562,
                -0.2927645444869995,
                0.9069817662239075
            ],
            "translation" : [
                -0.13088610768318176,
                -0.16547143459320068,
                0.11541405320167542
            ]
        }
    ],
    "materials" : [
        {
            "doubleSided" : true,
            "name" : "BiggoronSword",
            "normalTexture" : {
                "index" : 0
            },
            "pbrMetallicRoughness" : {
                "baseColorTexture" : {
                    "index" : 1
                },
                "metallicFactor" : 1.350000023841858,
                "metallicRoughnessTexture" : {
                    "index" : 2
                }
            }
        }
    ],
    "meshes" : [
        {
            "name" : "geom-01C0F936.001",
            "primitives" : [
                {
                    "attributes" : {
                        "COLOR_0" : 0,
                        "POSITION" : 1,
                        "TEXCOORD_0" : 2,
                        "TEXCOORD_1" : 3,
                        "TEXCOORD_2" : 4,
                        "TEXCOORD_3" : 5,
                        "NORMAL" : 6
                    },
                    "indices" : 7,
                    "material" : 0
                }
            ]
        }
    ],
    "textures" : [
        {
            "sampler" : 0,
            "source" : 0
        },
        {
            "sampler" : 0,
            "source" : 1
        },
        {
            "sampler" : 0,
            "source" : 2
        }
    ],
    "images" : [
        {
            "bufferView" : 8,
            "mimeType" : "image/png",
            "name" : "BiggoronSword_BiggoronSword_Normal"
        },
        {
            "bufferView" : 9,
            "mimeType" : "image/png",
            "name" : "BiggoronSword_BiggoronSword_BaseMap"
        },
        {
            "bufferView" : 10,
            "mimeType" : "image/png",
            "name" : "BiggoronSword_BiggoronSword_MaskMap"
        }
    ],
    "accessors" : [
        {
            "bufferView" : 0,
            "componentType" : 5123,
            "count" : 1156,
            "normalized" : true,
            "type" : "VEC4"
        },
        {
            "bufferView" : 1,
            "componentType" : 5126,
            "count" : 1156,
            "max" : [
                0.24374067783355713,
                1.7356029748916626,
                0.06525803357362747
            ],
            "min" : [
                -0.24374067783355713,
                -0.09086944162845612,
                -0.06525803357362747
            ],
            "type" : "VEC3"
        },
        {
            "bufferView" : 2,
            "componentType" : 5126,
            "count" : 1156,
            "type" : "VEC2"
        },
        {
            "bufferView" : 3,
            "componentType" : 5126,
            "count" : 1156,
            "type" : "VEC2"
        },
        {
            "bufferView" : 4,
            "componentType" : 5126,
            "count" : 1156,
            "type" : "VEC2"
        },
        {
            "bufferView" : 5,
            "componentType" : 5126,
            "count" : 1156,
            "type" : "VEC2"
        },
        {
            "bufferView" : 6,
            "componentType" : 5126,
            "count" : 1156,
            "type" : "VEC3"
        },
        {
            "bufferView" : 7,
            "componentType" : 5123,
            "count" : 3378,
            "type" : "SCALAR"
        }
    ],
    "bufferViews" : [
        {
            "buffer" : 0,
            "byteLength" : 9248,
            "byteOffset" : 0,
            "target" : 34962
        },
        {
            "buffer" : 0,
            "byteLength" : 13872,
            "byteOffset" : 9248,
            "target" : 34962
        },
        {
            "buffer" : 0,
            "byteLength" : 9248,
            "byteOffset" : 23120,
            "target" : 34962
        },
        {
            "buffer" : 0,
            "byteLength" : 9248,
            "byteOffset" : 32368,
            "target" : 34962
        },
        {
            "buffer" : 0,
            "byteLength" : 9248,
            "byteOffset" : 41616,
            "target" : 34962
        },
        {
            "buffer" : 0,
            "byteLength" : 9248,
            "byteOffset" : 50864,
            "target" : 34962
        },
        {
            "buffer" : 0,
            "byteLength" : 13872,
            "byteOffset" : 60112,
            "target" : 34962
        },
        {
            "buffer" : 0,
            "byteLength" : 6756,
            "byteOffset" : 73984,
            "target" : 34963
        },
        {
            "buffer" : 0,
            "byteLength" : 695576,
            "byteOffset" : 80740
        },
        {
            "buffer" : 0,
            "byteLength" : 639224,
            "byteOffset" : 776316
        },
        {
            "buffer" : 0,
            "byteLength" : 567051,
            "byteOffset" : 1415540
        }
    ],
    "samplers" : [
        {
            "magFilter" : 9729,
            "minFilter" : 9987
        }
    ],
    "buffers" : [
        {
            "byteLength" : 1982592,
            "uri" : "data:application/octet-stream;base64,"
        }
    ]
}
